<?xml version="1.0" encoding="utf-8"?>
<!-- Generator: Adobe Illustrator 15.0.0, SVG Export Plug-In . SVG Version: 6.00 Build 0)  -->
<!DOCTYPE svg PUBLIC "-//W3C//DTD SVG 1.1//EN" "http://www.w3.org/Graphics/SVG/1.1/DTD/svg11.dtd">
<svg version="1.1" id="Layer_1" xmlns="http://www.w3.org/2000/svg" xmlns:xlink="http://www.w3.org/1999/xlink" x="0px" y="0px"
	 width="300px" height="300px" viewBox="0 0 300 300" enable-background="new 0 0 300 300" xml:space="preserve">
<g>
	<path fill="#0069B4" d="M225.958,164.743c0,8.812,0,17.395,0,26.072c-7.603,0-15.092,0-22.704,0c0-15.168,0-30.354,0-45.736
		c0.666,0,1.294,0,1.922,0c17.385,0,34.771,0.005,52.164-0.005c1.028,0,2.046-0.024,3.055-0.119
		c3.949-0.385,5.814-2.055,6.537-5.837c0.477-2.517,0.686-5.048-0.646-7.398c-1.732-3.083-4.786-3.544-8.003-3.544
		c-17.556-0.01-35.103-0.015-52.649-0.005c-22.02,0.014-44.019,0.005-66.024,0.1c-2.426,0.01-4.919,0.395-7.26,1.019
		c-2.617,0.694-3.397,2.107-3.373,4.762c0.023,2.912,1.089,4.82,3.492,5.5c1.984,0.557,4.077,0.957,6.133,1.004
		c11.961,0.281,23.927,0.409,35.897,0.657c4.177,0.081,8.316,0.585,12.256,2.07c5.7,2.15,8.821,6.418,10.077,11.975
		c1.627,7.193,1.798,14.454,0.161,21.686c-1.522,6.709-7.45,12.104-14.539,12.941c-4.872,0.59-9.811,0.971-14.721,0.98
		c-29.736,0.085-59.472,0.048-89.208,0.048c-0.476,0-0.956,0-1.518,0c0-2.503,0.052-4.91-0.014-7.327
		c-0.091-3.35,0.014-6.728-0.476-10.029c-0.6-4.007-2.44-5.329-6.661-5.349c-9.173-0.066-18.355-0.057-27.533-0.066
		c-2.897-0.009-5.795-0.009-8.85-0.009c0,7.555,0,15.034,0,22.646c-7.684,0-15.21,0-22.842,0c0-26.948,0-53.896,0-80.954
		c0.566-0.023,1.085-0.071,1.608-0.071c20.715,0,41.436,0,62.155,0.029c4.677,0.009,9.25,0.713,13.736,2.041
		c5.966,1.76,9.392,5.79,10.881,11.404c1.989,7.527,1.96,15.139,0.353,22.728c-1.128,5.329-4.382,8.968-9.782,10.734
		c-0.176,0.057-0.338,0.147-0.98,0.423c8.459,2.132,10.872,7.993,11.162,15.368c0.633,0.028,1.199,0.076,1.765,0.076
		c21.896,0.009,43.795,0.009,65.7-0.01c0.8,0,1.618-0.029,2.389-0.19c4.615-0.952,6.728-5.899,4.234-9.839
		c-1.161-1.817-3.14-2.332-5.063-2.636c-2.588-0.409-5.224-0.609-7.841-0.676c-10.509-0.286-21.029-0.371-31.534-0.762
		c-3.825-0.143-7.665-0.732-11.428-1.46c-6.604-1.275-10.186-5.558-11.423-11.733c-1.446-7.227-1.518-14.478,0.281-21.681
		c1.67-6.713,8.021-12.251,15.044-12.832c5.814-0.48,11.652-0.899,17.48-0.909c40.688-0.071,81.368-0.038,122.057-0.005
		c5.252,0.005,10.495,0.291,15.5,2.098c7.213,2.607,11.591,7.294,12.58,14.944c0.714,5.571,1.027,11.124,0.828,16.709
		c-0.144,4.096-0.924,8.064-3.064,11.733c-3.235,5.533-8.184,8.406-14.597,9.13c-1.808,0.19-3.635,0.295-5.452,0.305
		c-13.046,0.019-26.092,0-39.128,0C227.453,164.743,226.815,164.743,225.958,164.743z M33.444,148.138c0.709,0,1.29,0,1.875,0
		c7.722,0,15.443,0.01,23.166-0.009c4.182-0.015,8.364,0,12.542-0.138c2.859-0.095,4.91-1.508,5.438-4.191
		c0.538-2.755,0.761-5.638,0.585-8.436c-0.19-3.069-1.936-5.338-5.329-5.923c-1.094-0.19-2.241-0.167-3.364-0.171
		c-11.042-0.01-22.09-0.005-33.138,0c-0.571,0-1.142,0.047-1.775,0.076C33.444,135.601,33.444,141.739,33.444,148.138z"/>
</g>
</svg>
